<?xml version="1.0" standalone="no"?>
<!DOCTYPE svg PUBLIC "-//W3C//DTD SVG 20010904//EN"
 "http://www.w3.org/TR/2001/REC-SVG-20010904/DTD/svg10.dtd">
<svg version="1.0" xmlns="http://www.w3.org/2000/svg"
 width="1000.000000pt" height="1000.000000pt" viewBox="0 0 1000.000000 1000.000000"
 preserveAspectRatio="xMidYMid meet">

  <style>
    /* Default: Mengikuti tab browser mode terang (Hitam) */
    .favicon-path {
      fill: #000000;
    }

    /* Otomatis: Mengikuti tab browser mode gelap (Putih) */
    @media (prefers-color-scheme: dark) {
      .favicon-path {
        fill: #FFFFFF;
      }
    }
  </style>

  <g transform="translate(0.000000,1000.000000) scale(0.100000,-0.100000)" stroke="none">
    <path class="favicon-path" d="M4755 9993 c-1341 -67 -2599 -668 -3485 -1664 -997 -1120 -1438
    -2613 -1211 -4095 160 -1045 659 -2024 1411 -2773 1238 -1231 2992 -1724 4700
    -1322 1432 337 2672 1332 3321 2666 432 887 590 1843 468 2828 -177 1427 -982
    2725 -2194 3534 -521 347 -1141 606 -1760 733 -370 76 -859 113 -1250 93z
    m-413 -3083 c-1 -8 -294 -846 -649 -1862 l-647 -1848 -273 0 c-150 0 -273 3
    -273 6 0 14 1294 3700 1303 3712 8 9 70 12 276 10 230 -3 266 -5 263 -18z
    m1378 -1382 l685 -837 5 837 5 837 315 0 315 0 0 -1385 0 -1385 -261 -3 -261
    -2 -689 839 -689 839 -5 -836 -5 -837 -312 -3 -313 -2 0 1390 0 1390 262 -2
    262 -3 686 -837z m-3330 182 l0 -239 -27 -14 c-16 -8 -310 -117 -655 -243
    -346 -126 -628 -231 -628 -234 0 -3 247 -95 548 -204 301 -110 595 -217 655
    -239 l107 -39 0 -244 c0 -134 -2 -244 -6 -244 -3 0 -428 160 -945 357 l-939
    356 0 257 0 257 938 356 c515 196 940 356 945 357 4 0 7 -108 7 -240z m6170
    -115 c498 -189 913 -347 923 -350 16 -7 17 -29 17 -265 0 -236 -1 -258 -17
    -265 -10 -3 -425 -161 -923 -350 -498 -189 -913 -347 -923 -350 -16 -7 -17 7
    -15 240 l3 248 648 235 c356 130 647 239 647 242 0 3 -219 86 -487 184 -269
    98 -561 206 -650 239 l-163 59 0 245 c0 229 1 245 18 238 9 -3 424 -161 922
    -350z"/>
  </g>
</svg>
